<?xml version="1.0" encoding="UTF-8"?><svg id="Calque_1" xmlns="http://www.w3.org/2000/svg" viewBox="0 0 1456.32 1457.99"><defs><style>.cls-1{fill:#fff;}</style></defs><path class="cls-1" d="m0,0v1457.99h1456.32V0H0Zm1356.01,1119.59c0,37.77-30.62,68.4-68.4,68.4h-240.69c-37.77,0-68.4-30.63-68.4-68.4v-116.02c0-37.77,30.63-68.39,68.4-68.39h240.69c37.78,0,68.4,30.62,68.4,68.39v116.02Zm-155.84,166.23c0,37.78-30.63,68.4-68.4,68.4h-84.85c-37.77,0-68.4-30.62-68.4-68.4v-13.85c0-37.78,30.63-68.4,68.4-68.4h84.85c37.77,0,68.4,30.62,68.4,68.4v13.85ZM978.52,238.21c0-37.77,30.63-68.39,68.4-68.39h148.92c37.77,0,68.4,30.62,68.4,68.39v230.3c0,37.78-30.63,68.4-68.4,68.4h-148.92c-37.77,0-68.4-30.62-68.4-68.4v-230.3Zm0,382.68c0-37.77,30.63-68.39,68.4-68.39h204.33c37.77,0,68.4,30.62,68.4,68.39v230.3c0,37.78-30.63,68.4-68.4,68.4h-204.33c-37.77,0-68.4-30.62-68.4-68.4v-230.3Zm-17.31,664.93c0,37.78-30.62,68.4-68.4,68.4h-323.81c-37.77,0-68.39-30.62-68.39-68.4v-237.23c0-37.77,30.62-68.39,68.39-68.39h323.81c37.78,0,68.4,30.62,68.4,68.39v237.23Zm0-389.6c0,37.77-30.62,68.39-68.4,68.39h-323.81c-37.77,0-68.39-30.62-68.39-68.39V167.22c0-37.78,30.62-68.4,68.39-68.4h323.81c37.78,0,68.4,30.62,68.4,68.4v729Zm-477.92,313.41c0,37.78-30.62,68.4-68.4,68.4h-171.42c-37.78,0-68.4-30.62-68.4-68.4v-10.39c0-37.77,30.62-68.4,68.4-68.4h171.42c37.78,0,68.4,30.63,68.4,68.4v10.39Zm0-166.23c0,37.77-30.62,68.4-68.4,68.4h-157.57c-37.77,0-68.4-30.63-68.4-68.4v-128.14c0-37.77,30.63-68.39,68.4-68.39h157.57c37.78,0,68.4,30.62,68.4,68.39v128.14Zm0-283.98c0,37.78-30.62,68.4-68.4,68.4h-242.42c-37.77,0-68.39-30.62-68.39-68.4v-206.06c0-37.77,30.62-68.4,68.39-68.4h242.42c37.78,0,68.4,30.63,68.4,68.4v206.06Zm0-361.9c0,37.77-30.62,68.4-68.4,68.4h-190.47c-37.77,0-68.4-30.63-68.4-68.4v-159.31c0-37.77,30.63-68.39,68.4-68.39h190.47c37.78,0,68.4,30.62,68.4,68.39v159.31Z"/></svg>